<?xml version="1.0" encoding="utf-8"?>
<!-- Generator: Adobe Illustrator 22.0.1, SVG Export Plug-In . SVG Version: 6.00 Build 0)  -->
<svg version="1.1" id="Colour" xmlns="http://www.w3.org/2000/svg" xmlns:xlink="http://www.w3.org/1999/xlink" x="0px" y="0px"
	 viewBox="0 0 695 159.1" style="enable-background:new 0 0 695 159.1;" xml:space="preserve">
<style type="text/css">
	.st0{fill-rule:evenodd;clip-rule:evenodd;}
	.st1{fill-rule:evenodd;clip-rule:evenodd;fill:#009FE3;}
	.st2{fill-rule:evenodd;clip-rule:evenodd;fill:#E3E3E3;}
</style>
<g>
	<path class="st0" d="M310,130.1c-19,0-37.9,0-56.9,0c-1.1,0-1.4-0.3-1.4-1.4c0.1-4.2,0.1-8.3,0-12.5c0-1.2,0.4-1.3,1.4-1.3
		c32.8,0,65.5,0,98.3,0c4,0,7.9-0.7,11.4-2.7c1.4-0.8,2.6-1.8,3.5-3c2.1-2.8,1.9-5.8-0.5-8.3c-2.7-2.8-6.2-4-9.9-4.7
		c-1.3-0.2-2.7-0.3-4.1-0.3c-16.1,0-32.2,0-48.4,0c-9.6,0-19.2-0.7-28.5-3.1c-7.1-1.8-13.9-4.4-19.8-8.9c-1.9-1.4-3.6-3.1-5-5
		c-3.8-5.2-3.7-10.2,0.4-15.2c3.7-4.6,8.6-7.5,14-9.8c7.2-3.1,14.8-4.6,22.6-5.5c6.2-0.7,12.4-0.8,18.7-0.8c31.7,0,63.4,0,95.2,0
		c1.2,0,1.4,0.3,1.4,1.4c-0.1,4.3-0.1,8.6,0,12.8c0,1.1-0.2,1.4-1.4,1.4c-20.6,0-41.1,0-61.7,0c-10.8,0-21.7,0-32.5,0
		c-3.6,0-7.1,0.6-10.2,2.5c-5.3,3.1-5.7,8.1-0.9,11.9c3.1,2.4,6.7,3.3,10.5,3.3c16.6,0,33.2-0.1,49.8,0c11.9,0.1,23.6,1.2,34.9,5
		c6,2,11.7,4.6,16.4,9.1c2.5,2.4,4.4,5.2,5,8.7c0.7,4.2-0.8,7.7-3.5,10.8c-3.4,4.1-7.9,6.7-12.7,8.8c-7.1,3.2-14.7,4.8-22.4,5.8
		c-7.5,1-15.1,1.1-22.7,1.1C337.4,130.1,323.7,130.1,310,130.1z"/>
	<path class="st1" d="M23,147.5c41.9-18.5,82.4-39.8,121.4-63.9c17.5-10.8,33.9-23.2,49.8-36.3c11.3-9.3,22.3-19.1,32.8-29.3
		c5.9-5.8,11.7-11.6,16.9-18c0.2,0.2,0,0.4-0.1,0.6C232,29.1,184.3,145.8,181,153.8c-2.9-8.5-9.6-12.7-17.2-15.7
		c-5.8-2.2-11.9-3.3-18.1-3.9c-11.6-1-23.1-0.4-34.7,0.7c-26,2.4-51.5,7.1-76.9,13.2c-10.5,2.5-20.9,5.3-31.1,8.7
		c-0.2,0.1-3.1,0.9-3,0.9C0,157.6,16.1,150.5,23,147.5z"/>
	<path class="st0" d="M656.4,47.5c12.6,0,25.2,0,37.8,0c1.1,0,1.3,0.2,1.3,1.3c-0.1,4.4-0.1,8.8,0,13.2c0,1-0.3,1.2-1.3,1.2
		c-21.2,0-42.4-0.1-63.6,0c-9,0-17.6,1.7-25.8,5.6c-5,2.4-9.3,5.6-12.1,10.6c-4.2,7.7-2.8,16.7,3.7,23.3c4.3,4.3,9.5,7,15.2,9
		c6.7,2.3,13.6,3.4,20.7,3.4c20.4,0,40.8,0,61.2,0c1.2,0,1.4,0.3,1.4,1.4c-0.1,4.2-0.1,8.3,0,12.5c0,1-0.3,1.2-1.2,1.2
		c-20.6,0-41.1,0-61.7,0c-12.7,0-25.2-1.3-37.5-4.4c-8.9-2.3-17.4-5.5-25-10.9c-6.8-4.9-11.9-11-13.6-19.3c-2.6-12.5,1.3-22.8,11-31
		c6.9-5.8,15.1-9.2,23.6-11.7c11.6-3.4,23.5-5,35.6-5.1C636.3,47.5,646.4,47.6,656.4,47.5C656.4,47.6,656.4,47.5,656.4,47.5z"/>
	<path class="st0" d="M517.7,47.5c12.2,0,24.3,0,36.5,0c1,0,1.3,0.2,1.3,1.2c-0.1,4.4-0.1,8.8,0,13.2c0,1-0.2,1.3-1.3,1.3
		c-21.2,0-42.4-0.1-63.6,0c-8.9,0-17.5,1.7-25.5,5.5c-4.4,2.1-8.3,4.8-11.1,8.9c-5.5,7.8-4.4,18,2.5,25c4.7,4.8,10.7,7.6,17,9.6
		c6,1.9,12.2,2.8,18.5,2.8c20.6,0,41.2,0,61.8,0c1.1,0,1.3,0.2,1.3,1.3c-0.1,4.2,0,8.5,0,12.7c0,0.8-0.2,1.1-1,1.1
		c-20.6,0-41.3,0-61.9,0c-13.9-0.1-27.6-1.5-40.9-5.4c-8.6-2.5-16.7-5.9-23.7-11.6c-6.3-5.2-10.6-11.6-11.7-19.9
		c-1.3-9.9,1.4-18.5,8.3-25.7c6.2-6.5,14-10.3,22.3-13.3c9.8-3.4,19.9-5.2,30.2-6.1c5.5-0.5,11.1-0.6,16.6-0.6
		C501.3,47.5,509.5,47.5,517.7,47.5z"/>
	<rect x="185.5" y="87.5" class="st2" width="42.6" height="42.6"/>
</g>
</svg>
